<svg id="Layer_1" enable-background="new 0 0 512 512" height="512" viewBox="0 0 512 512" width="512" xmlns="http://www.w3.org/2000/svg"><g><path d="m488.5 0c-46.416 0-449.844 0-465 0-12.958 0-23.5 10.542-23.5 23.5v465c0 12.958 10.542 23.5 23.5 23.5h465c12.958 0 23.5-10.542 23.5-23.5 0-18.872 0-448.485 0-464.5 0-14.223-11.126-24-23.5-24zm7.5 24v24h-32v-32h24c4.411 0 8 3.589 8 8zm-48 24h-32v-32h32zm-48-32v32h-24c-4.411 0-8-3.589-8-8v-24zm-376.5 0h328.5v24c0 13.234 10.766 24 24 24h120v16h-480v-56.5c0-4.135 3.364-7.5 7.5-7.5zm465 480h-465c-4.136 0-7.5-3.365-7.5-7.5v-392.5h480v392.5c0 4.135-3.364 7.5-7.5 7.5z"/><path d="m88 56h232c4.418 0 8-3.582 8-8s-3.582-8-8-8h-232c-4.418 0-8 3.582-8 8s3.582 8 8 8z"/><path d="m40 56h16c4.418 0 8-3.582 8-8s-3.582-8-8-8h-16c-4.418 0-8 3.582-8 8s3.582 8 8 8z"/><path d="m424 408h-336c-13.234 0-24 10.766-24 24v16c0 13.234 10.766 24 24 24h336c13.234 0 24-10.766 24-24v-16c0-13.234-10.766-24-24-24zm-344 40v-16c0-4.411 3.589-8 8-8h280v32h-280c-4.411 0-8-3.589-8-8zm352 0c0 4.411-3.589 8-8 8h-40v-32h40c4.411 0 8 3.589 8 8z"/><path d="m256 128c-70.58 0-128 57.421-128 128s57.42 128 128 128 128-57.421 128-128-57.42-128-128-128zm111.711 120h-68.555c-.546-16.101-2.744-32.009-6.516-47.5 14.766-5.853 28.093-15.188 38.666-27.333 20.682 18.819 34.308 45.259 36.405 74.833zm-111.711 113.661c-6.987-12.583-12.675-25.789-17.018-39.424 5.556-1.163 11.257-1.767 17.018-1.767 5.762 0 11.462.604 17.018 1.767-4.343 13.636-10.031 26.842-17.018 39.424zm32.293-34.661c11.556 4.844 22.009 12.242 30.433 21.742-13.895 9.428-30.011 15.811-47.384 18.202 6.903-12.792 12.568-26.163 16.951-39.944zm-47.636 39.944c-17.374-2.391-33.491-8.775-47.386-18.204 8.425-9.499 18.88-16.896 30.436-21.74 4.383 13.781 10.049 27.152 16.95 39.944zm15.343-62.474c-7.224 0-14.365.805-21.313 2.337-3.339-13.972-5.305-28.304-5.833-42.807h54.292c-.528 14.503-2.494 28.835-5.833 42.806-6.947-1.531-14.089-2.336-21.313-2.336zm-27.146-56.47c.528-14.503 2.494-28.835 5.833-42.807 6.947 1.532 14.089 2.337 21.313 2.337 7.223 0 14.365-.805 21.312-2.338 3.339 13.972 5.306 28.304 5.834 42.808zm27.146-97.661c6.987 12.583 12.674 25.788 17.018 39.424-5.557 1.164-11.257 1.768-17.018 1.768s-11.462-.604-17.018-1.767c4.343-13.637 10.031-26.843 17.018-39.425zm-32.293 34.66c-11.556-4.844-22.011-12.241-30.436-21.74 13.895-9.429 30.012-15.813 47.386-18.204-6.901 12.793-12.567 26.164-16.95 39.944zm47.636-39.943c17.373 2.391 33.49 8.775 47.385 18.203-8.425 9.499-18.88 16.895-30.435 21.74-4.384-13.781-10.049-27.152-16.95-39.943zm-90.651 28.112c10.572 12.145 23.9 21.48 38.667 27.333-3.772 15.491-5.97 31.398-6.516 47.499h-68.555c2.098-29.574 15.723-56.013 36.404-74.832zm-36.403 90.832h68.555c.546 16.101 2.744 32.008 6.516 47.499-14.768 5.852-28.095 15.188-38.667 27.333-20.682-18.819-34.307-45.258-36.404-74.832zm187.017 74.833c-10.571-12.147-23.898-21.482-38.666-27.335 3.772-15.49 5.969-31.398 6.516-47.498h68.555c-2.097 29.574-15.723 56.014-36.405 74.833z"/></g></svg>