<svg id="Layer_1" enable-background="new 0 0 512 512" height="512" viewBox="0 0 512 512" width="512" xmlns="http://www.w3.org/2000/svg"><g><path d="m392 152c-13.234 0-24 10.766-24 24v32c0 61.757-50.243 112-112 112s-112-50.243-112-112v-32c0-13.234-10.766-24-24-24s-24 10.766-24 24v32c0 80.069 59.12 146.585 136 158.2v81.8h-17c-29.079 0-55 23.044-55 56 0 4.418 3.582 8 8 8h176c4.418 0 8-3.582 8-8 0-30.878-25.122-56-56-56h-16v-81.8c76.88-11.614 136-78.131 136-158.2v-32c0-13.234-10.766-24-24-24zm-56.804 344h-158.567c3.307-18.176 19.255-32 38.371-32h81c19.316 0 35.479 13.765 39.196 32zm-71.196-48h-16v-80.2c5.389.267 10.606.267 16 0zm136-240c0 79.402-64.598 144-144 144s-144-64.598-144-144v-32c0-4.411 3.589-8 8-8s8 3.589 8 8v32c0 70.579 57.42 128 128 128s128-57.421 128-128v-32c0-4.411 3.589-8 8-8s8 3.589 8 8z"/><path d="m256 304c43.754 0 80.763-29.424 92.285-69.523 4.678-14.38 3.715-28.622 3.715-66.477 0-79.823.932-82.092-3.621-98.153-11.035-39.555-47.969-69.847-92.379-69.847-44.387 0-81.338 30.271-92.379 69.847-4.761 16.794-3.621 16.169-3.621 138.153 0 52.984 43.121 96 96 96zm-78.39-224h22.39c4.411 0 8 3.589 8 8s-3.589 8-8 8h-24c0-5.478.556-10.829 1.61-16zm-1.61 64h24c4.411 0 8 3.589 8 8s-3.589 8-8 8h-24zm0 64h24c4.411 0 8 3.589 8 8s-3.589 8-8 8h-22.39c-1.054-5.171-1.61-10.522-1.61-16zm160-48h-24c-4.411 0-8-3.589-8-8s3.589-8 8-8h24zm0-64h-24c-4.411 0-8-3.589-8-8s3.589-8 8-8h22.39c1.054 5.171 1.61 10.522 1.61 16zm-1.61 128h-22.39c-4.411 0-8-3.589-8-8s3.589-8 8-8h24c0 5.478-.556 10.829-1.61 16zm-78.39-208c32.738 0 60.93 19.775 73.3 48h-17.3c-13.234 0-24 10.766-24 24s10.766 24 24 24h24v16h-24c-13.234 0-24 10.766-24 24s10.766 24 24 24h24v16h-24c-13.234 0-24 10.766-24 24s10.766 24 24 24h17.3c-12.37 28.225-40.562 48-73.3 48s-60.93-19.775-73.3-48h17.3c13.234 0 24-10.766 24-24s-10.766-24-24-24h-24v-16h24c13.234 0 24-10.766 24-24s-10.766-24-24-24h-24v-16h24c13.234 0 24-10.766 24-24s-10.766-24-24-24h-17.3c12.37-28.225 40.562-48 73.3-48z"/></g></svg>