<svg id="Layer_1" enable-background="new 0 0 512.192 512.192" height="512" viewBox="0 0 512.192 512.192" width="512" xmlns="http://www.w3.org/2000/svg"><g><path d="m505.157 131.515-124.45-124.451c-9.379-9.379-24.561-9.381-33.941 0-24.348 24.347-27.277 61.149-10.558 88.428l-72.623 54.468c-49.421-23.447-111.871-15.726-154.406 26.81-9.38 9.379-9.381 24.56 0 33.941l68.07 68.07-168.705 180.468c-19.117 20.506-3.844 52.914 22.987 52.914 7.676 0 15.365-2.822 21.449-8.494l180.461-168.696 68.07 68.07c9.379 9.379 24.561 9.381 33.941 0 42.437-42.437 50.316-104.859 26.81-154.406l54.468-72.623c27.27 16.713 64.074 13.796 88.428-10.558 9.379-9.379 9.38-24.56-.001-33.941zm-463.095 360.459c-6.113 5.699-15.529 5.533-21.439-.375-5.909-5.909-6.074-15.326-.383-21.431l168.327-180.068 33.554 33.554zm282.076-100.244c-3.119 3.12-8.195 3.119-11.314 0-17.664-17.664-171.951-171.951-192.333-192.333-3.119-3.119-3.119-8.195 0-11.314 38.276-38.276 95.231-44.855 139.731-21.921.324.198.659.372 1.004.521 19.632 10.355 25.591 18.02 62.913 55.341 46.798 46.8 46.989 122.716-.001 169.706zm79.947-225.524-50.351 67.135c-5.215-8.08-11.321-15.668-18.283-22.63-35.096-35.096-40.803-42.048-56.571-52.224l67.135-50.351c1.758 1.758 29.896 29.896 58.07 58.07zm89.759-12.064c-21.877 21.877-57.293 21.892-79.186.01l-56.588-56.588c-21.871-21.882-21.878-57.298.01-79.186 3.121-3.12 8.18-3.133 11.314 0l124.451 124.451c3.119 3.121 3.131 8.18-.001 11.313z"/></g></svg>