<svg id="Layer_1" enable-background="new 0 0 512.115 512.115" height="512" viewBox="0 0 512.115 512.115" width="512" xmlns="http://www.w3.org/2000/svg"><g><path d="m437.077 75.038c-100.044-100.043-261.98-100.058-362.039 0-100.044 100.045-100.057 261.981 0 362.039 100.044 100.043 261.98 100.058 362.039 0 100.044-100.045 100.057-261.981 0-362.039zm-181.02 421.019c-132.336 0-240-107.664-240-240s107.664-240 240-240 240 107.664 240 240-107.664 240-240 240z"/><path d="m350.618 70.751c-9.993-5.11-21.679-4.661-31.256 1.199-21.349 13.063-20.094 44.434 2.112 55.78 87.576 44.747 105.253 161.448 36.302 230.256-26.556 26.501-62.31 42.07-102.022 42.07-79.235-.163-143.697-64.762-143.696-144.001.001-54.303 30.044-103.439 78.405-128.234 22.519-11.546 23.564-42.866 2.272-55.902-9.544-5.844-21.18-6.301-31.127-1.226-126.445 64.552-152.546 234.47-51.569 333.789 39.85 39.195 92.842 60.451 149.441 59.548 112.204-1.812 204.577-93.107 204.577-207.973 0-79.159-44.59-150.107-113.439-185.306zm-91.395 377.281c-52.076.849-101.09-18.687-137.964-54.957-92.059-90.546-70.728-247.713 47.624-308.13 4.894-2.499 10.548-2.41 15.498.62 10.597 6.489 10.24 22.144-1.217 28.02-97.669 50.074-116.153 179.675-40.431 255.56 30.153 30.217 70.401 46.914 113.327 46.914 88.479-.003 159.997-71.607 159.997-160 0-60.428-33.453-115.06-87.304-142.575-5.364-2.741-8.696-8.192-8.696-14.23 0-11.956 12.639-19.694 23.277-14.255 64.596 33.024 104.723 98.571 104.723 171.06 0 104.172-84.71 190.291-188.834 191.973z"/><path d="m256.057 240.057c17.645 0 32-14.355 32-32v-128c0-17.645-14.355-32-32-32s-32 14.355-32 32v128c0 17.646 14.356 32 32 32zm-16-160c0-8.822 7.178-16 16-16s16 7.178 16 16v128c0 8.822-7.178 16-16 16s-16-7.178-16-16z"/></g></svg>