<svg id="Layer_1" enable-background="new 0 0 512 512" height="512" viewBox="0 0 512 512" width="512" xmlns="http://www.w3.org/2000/svg"><g><path d="m449.726 376.086c-26.518-22.727-41.726-55.792-41.726-90.716v-32.408c41.359-10.684 72-48.312 72-92.963 0-52.935-43.065-96-96-96-22.019 0-42.327 7.457-58.542 19.971-6.909-3.831-14.087-7.112-21.458-9.863v-18.107c0-30.878-25.122-56-56-56s-56 25.122-56 56v18.122c-60.686 22.749-104 81.347-104 149.878v61.37c0 34.89-15.178 67.962-41.726 90.716-8.819 7.558-14.274 18.78-14.274 31.034 0 22.541 18.339 40.88 40.88 40.88h103.575c3.994 35.948 34.549 64 71.545 64s67.551-28.052 71.545-64h103.575c22.541 0 40.88-18.339 40.88-40.88 0-12.264-5.468-23.488-14.274-31.034zm14.274-216.086c0 44.112-35.888 80-80 80s-80-35.888-80-80 35.888-80 80-80 80 35.888 80 80zm-256-104c0-22.056 17.944-40 40-40s40 17.944 40 40v13.08c-26.897-6.923-54.455-6.616-80-.017zm40 440c-28.162 0-51.525-20.899-55.419-48h110.839c-3.895 27.101-27.258 48-55.42 48zm175.12-64h-350.24c-23.074 0-33.632-28.82-16.194-43.766 29.983-25.698 47.314-63.14 47.314-102.864v-61.37c0-107.481 113.883-176.685 208.983-128.53-15.515 17.059-24.983 39.71-24.983 64.53 0 55.923 47.889 100.315 104 95.664v29.706c0 39.602 17.245 77.094 47.314 102.865 17.437 14.941 6.882 43.765-16.194 43.765z"/><path d="m368 192c-4.418 0-8 3.582-8 8s3.582 8 8 8h32c4.418 0 8-3.582 8-8s-3.582-8-8-8h-8v-72c0-5.936-6.26-9.814-11.578-7.155l-16 8c-3.952 1.976-5.554 6.781-3.578 10.733 1.976 3.953 6.78 5.554 10.733 3.578l4.422-2.211v59.055z"/></g></svg>