<svg id="Layer_1" enable-background="new 0 0 512.045 512.045" height="512" viewBox="0 0 512.045 512.045" width="512" xmlns="http://www.w3.org/2000/svg"><g><path d="m287.391 84.971-13.58 12.071c-34.837 30.967-77.257 52.73-122.721 62.98h-55.09c-52.935 0-96 43.065-96 96s43.065 96 96 96h55.09c45.464 10.251 87.884 32.014 122.721 62.98l13.58 12.071c12.496 11.11 32.609 2.345 32.609-14.643v-312.815c0-16.985-20.111-25.754-32.609-14.644zm-271.391 171.052c0-44.112 35.888-80 80-80h48v160h-48c-44.112 0-80-35.888-80-80zm288 156.407c0 3.086-3.673 4.734-5.979 2.686 0-.1 1.012.898-13.581-12.071-35.475-31.533-78.384-54.052-124.441-65.366v-163.312c46.057-11.314 88.966-33.833 124.441-65.366l13.581-12.072c2.303-2.047 5.979-.406 5.979 2.686z"/><path d="m351.603 205.106c-3.125 3.124-3.125 8.189 0 11.314 21.878 21.877 21.881 57.325 0 79.205-3.125 3.125-3.125 8.19 0 11.314 3.123 3.124 8.188 3.125 11.313 0 28.132-28.132 28.134-73.7 0-101.834-3.124-3.123-8.189-3.123-11.313.001z"/><path d="m408.168 159.857c-3.124-3.125-8.188-3.126-11.314-.002-3.125 3.124-3.126 8.189-.002 11.314 46.896 46.915 46.904 122.785 0 169.708-5.053 5.055-1.405 13.656 5.658 13.656 2.048 0 4.096-.782 5.658-2.344 53.147-53.171 53.152-139.156 0-192.332z"/><path d="m453.416 114.605c-3.125-3.123-8.19-3.124-11.314.001s-3.123 8.19.001 11.314c71.912 71.89 71.922 188.304 0 260.204-5.058 5.056-1.406 13.658 5.656 13.658 2.047 0 4.094-.781 5.656-2.342 78.168-78.145 78.178-204.68.001-282.835z"/></g></svg>