<svg id="Layer_1" enable-background="new 0 0 512 512" height="512" viewBox="0 0 512 512" width="512" xmlns="http://www.w3.org/2000/svg"><g><path d="m440 31.964h-304c-37.135 0-67.789 28.261-71.596 64.404-36.144 3.807-64.404 34.461-64.404 71.596v176c0 39.701 32.299 72 72 72v56c0 4.411 3.58 8 8 8 3.039 0-6.276 4.8 114.125-64h181.875c37.135 0 67.789-28.26 71.596-64.404 36.144-3.807 64.404-34.461 64.404-71.596v-176c0-39.701-32.299-72-72-72zm-64 368h-181.875c-2.78 0-5.525.729-7.938 2.108l-98.187 56.106v-42.214c0-8.822-7.178-16-16-16-30.879 0-56-25.122-56-56v-176c0-30.878 25.121-56 56-56h304c30.879 0 56 25.122 56 56v176c0 30.878-25.121 56-56 56zm120-120c0 28.162-20.898 51.525-48 55.419v-167.419c0-39.701-32.299-72-72-72h-295.419c3.895-27.101 27.257-48 55.419-48h304c30.879 0 56 25.122 56 56z"/><path d="m88 215.964c-22.056 0-40 17.944-40 40s17.944 40 40 40 40-17.944 40-40-17.944-40-40-40zm0 64c-13.233 0-24-10.767-24-24s10.767-24 24-24 24 10.767 24 24-10.767 24-24 24z"/><path d="m360 215.964c-22.056 0-40 17.944-40 40s17.944 40 40 40 40-17.944 40-40-17.944-40-40-40zm0 64c-13.233 0-24-10.767-24-24s10.767-24 24-24 24 10.767 24 24-10.767 24-24 24z"/><path d="m224 215.964c-22.056 0-40 17.944-40 40s17.944 40 40 40 40-17.944 40-40-17.944-40-40-40zm0 64c-13.233 0-24-10.767-24-24s10.767-24 24-24 24 10.767 24 24-10.767 24-24 24z"/></g></svg>