<svg id="Layer_1" enable-background="new 0 0 512 512" height="512" viewBox="0 0 512 512" width="512" xmlns="http://www.w3.org/2000/svg"><g><path d="m488 312h-32c-13.233 0-24 10.766-24 24v96h-352v-96c0-13.234-10.767-24-24-24h-32c-13.233 0-24 10.766-24 24v136c0 22.056 17.944 40 40 40h432c22.056 0 40-17.944 40-40v-136c0-13.234-10.767-24-24-24zm8 160c0 13.234-10.767 24-24 24h-432c-13.233 0-24-10.766-24-24v-136c0-4.411 3.589-8 8-8h32c4.411 0 8 3.589 8 8v104c0 4.418 3.582 8 8 8h368c4.418 0 8-3.582 8-8v-104c0-4.411 3.589-8 8-8h32c4.411 0 8 3.589 8 8z"/><path d="m151.029 186.343c9.357 9.357 24.584 9.357 33.941 0l23.03-23.029v212.686c0 13.234 10.767 24 24 24h48c13.233 0 24-10.766 24-24v-212.686l23.029 23.029c9.357 9.357 24.584 9.357 33.941 0l25.373-25.373c9.357-9.357 9.357-24.583 0-33.94l-124.686-124.687c-3.125-3.124-8.189-3.124-11.314 0l-124.687 124.687c-9.357 9.357-9.357 24.583 0 33.94zm-14.058-48 119.029-119.029 119.029 119.029c3.119 3.119 3.119 8.194 0 11.313l-25.373 25.373c-3.126 3.126-8.186 3.126-11.313 0l-36.687-36.687c-5.02-5.02-13.656-1.464-13.656 5.658v232c0 4.411-3.589 8-8 8h-48c-4.411 0-8-3.589-8-8v-232c0-7.165-8.669-10.643-13.657-5.657l-36.687 36.687c-3.126 3.126-8.186 3.126-11.313 0l-25.373-25.373c-3.118-3.12-3.118-8.195.001-11.314z"/></g></svg>