<svg id="Layer_1" enable-background="new 0 0 512 512" height="512" viewBox="0 0 512 512" width="512" xmlns="http://www.w3.org/2000/svg"><g><path d="m488 120c-6.258 0-239.327 0-246.111 0-3.05 0-5.792-1.695-7.156-4.422l-23.155-46.311c-4.092-8.184-12.317-13.267-21.467-13.267h-166.111c-13.234 0-24 10.766-24 24v352c0 13.234 10.766 24 24 24h464c13.234 0 24-10.766 24-24v-288c0-13.234-10.766-24-24-24zm-464-48h166.111c3.05 0 5.792 1.695 7.156 4.422l23.155 46.311c4.092 8.184 12.317 13.267 21.466 13.267h105.167l-21.789 43.578c-1.364 2.728-4.106 4.422-7.156 4.422h-302.11v-104c0-4.411 3.589-8 8-8zm472 360c0 4.411-3.589 8-8 8h-464c-4.411 0-8-3.589-8-8v-232h302.111c9.149 0 17.375-5.083 21.466-13.267l23.155-46.311c1.364-2.728 4.106-4.422 7.156-4.422h118.112c4.411 0 8 3.589 8 8z"/></g></svg>