<svg id="Layer_1" enable-background="new 0 0 512.004 512.004" height="512" viewBox="0 0 512.004 512.004" width="512" xmlns="http://www.w3.org/2000/svg"><g><path d="m488.002 0h-464c-13.234 0-24 10.766-24 24v48c0 13.234 10.766 24 24 24h11.808l135.924 196.335c2.792 4.032 4.268 8.756 4.268 13.661v158.004c0 3.594 2.396 6.747 5.859 7.708l144 40c5.112 1.418 10.142-2.436 10.142-7.708v-198.004c0-4.904 1.476-9.628 4.267-13.661l135.923-196.335h11.809c13.233 0 24-10.766 24-24v-48c0-13.234-10.767-24-24-24zm-160.889 283.229c-4.652 6.721-7.111 14.594-7.111 22.768v187.479l-128-35.556v-151.924c0-8.175-2.459-16.048-7.112-22.769l-129.619-187.227h401.463zm168.889-211.229c0 4.411-3.589 8-8 8-9.144 0-437.418 0-464 0-4.411 0-8-3.589-8-8v-48c0-4.411 3.589-8 8-8h464c4.411 0 8 3.589 8 8z"/></g></svg>