<svg id="Layer_1" enable-background="new 0 0 512.003 512.003" height="512" viewBox="0 0 512.003 512.003" width="512" xmlns="http://www.w3.org/2000/svg"><g><path d="m504.001 448.001h-72v-253.071c39.122 21.734 37.12 21.071 40 21.071 3.024 0 5.798-1.708 7.155-4.422l32-64c1.923-3.846.462-8.524-3.309-10.592l-248-136c-2.396-1.313-5.297-1.313-7.693 0l-248 136c-3.771 2.068-5.231 6.746-3.309 10.592l32 64c2.035 4.071 7.061 5.627 11.04 3.416l36.115-20.064v253.071h-72c-4.418 0-8 3.582-8 8v48c0 4.418 3.582 8 8 8h496c4.418 0 8-3.582 8-8v-48c.001-4.419-3.581-8.001-7.999-8.001zm-460.581-251.051-24.819-49.638 237.4-130.187 237.4 130.187-24.819 49.638c-222.68-123.711-209.373-116.949-212.581-116.949-3.217 0 10.438-6.95-212.581 116.949zm52.581-10.908 160-88.889 160 88.889v261.959h-72v-168c0-13.233-10.767-24-24-24h-128c-13.233 0-24 10.767-24 24v168h-72zm232 261.959h-144v-168c0-4.411 3.589-8 8-8h128c4.411 0 8 3.589 8 8zm168 48h-480v-32h480z"/><circle cx="304.001" cy="376.001" r="8"/></g></svg>