<svg id="Layer_1" enable-background="new 0 0 512 512" height="512" viewBox="0 0 512 512" width="512" xmlns="http://www.w3.org/2000/svg"><g><path d="m472 352h-432c-22.056 0-40 17.944-40 40v80c0 22.056 17.944 40 40 40h432c22.056 0 40-17.944 40-40v-80c0-22.056-17.944-40-40-40zm24 120c0 13.234-10.766 24-24 24h-432c-13.234 0-24-10.766-24-24v-80c0-13.234 10.766-24 24-24h432c13.234 0 24 10.766 24 24z"/><path d="m241.569 408c-2.209-3.826-7.102-5.135-10.928-2.928l-22.641 13.072v-26.144c0-4.418-3.582-8-8-8s-8 3.582-8 8v26.144l-22.641-13.072c-3.826-2.21-8.719-.898-10.928 2.928s-.898 8.719 2.928 10.928l22.641 13.072-22.641 13.072c-3.826 2.209-5.137 7.102-2.928 10.928 2.213 3.832 7.106 5.134 10.928 2.928l22.641-13.072v26.144c0 4.418 3.582 8 8 8s8-3.582 8-8v-26.144l22.641 13.072c3.809 2.2 8.709.915 10.928-2.928 2.209-3.826.898-8.719-2.928-10.928l-22.641-13.072 22.641-13.072c3.826-2.209 5.137-7.102 2.928-10.928z"/><path d="m353.569 408c-2.209-3.826-7.102-5.135-10.928-2.928l-22.641 13.072v-26.144c0-4.418-3.582-8-8-8s-8 3.582-8 8v26.144l-22.641-13.072c-3.827-2.21-8.719-.898-10.928 2.928s-.898 8.719 2.928 10.928l22.641 13.072-22.641 13.072c-3.826 2.209-5.137 7.102-2.928 10.928 2.213 3.832 7.106 5.134 10.928 2.928l22.641-13.072v26.144c0 4.418 3.582 8 8 8s8-3.582 8-8v-26.144l22.641 13.072c3.809 2.2 8.709.915 10.928-2.928 2.209-3.826.898-8.719-2.928-10.928l-22.641-13.072 22.641-13.072c3.826-2.209 5.137-7.102 2.928-10.928z"/><path d="m468.569 408c-2.209-3.826-7.102-5.135-10.928-2.928l-22.641 13.072v-26.144c0-4.418-3.582-8-8-8s-8 3.582-8 8v26.144l-22.641-13.072c-3.826-2.21-8.719-.898-10.928 2.928s-.898 8.719 2.928 10.928l22.641 13.072-22.641 13.072c-3.826 2.209-5.137 7.102-2.928 10.928 2.213 3.832 7.106 5.134 10.928 2.928l22.641-13.072v26.144c0 4.418 3.582 8 8 8s8-3.582 8-8v-26.144l22.641 13.072c3.809 2.2 8.709.915 10.928-2.928 2.209-3.826.898-8.719-2.928-10.928l-22.641-13.072 22.641-13.072c3.826-2.209 5.137-7.102 2.928-10.928z"/><path d="m129.569 408c-2.209-3.826-7.102-5.135-10.928-2.928l-22.641 13.072v-26.144c0-4.418-3.582-8-8-8s-8 3.582-8 8v26.144l-22.641-13.072c-3.826-2.21-8.719-.898-10.928 2.928s-.898 8.719 2.928 10.928l22.641 13.072-22.641 13.072c-3.826 2.209-5.137 7.102-2.928 10.928 2.213 3.832 7.106 5.134 10.928 2.928l22.641-13.072v26.144c0 4.418 3.582 8 8 8s8-3.582 8-8v-26.144l22.641 13.072c3.809 2.2 8.709.915 10.928-2.928 2.209-3.826.898-8.719-2.928-10.928l-22.641-13.072 22.641-13.072c3.826-2.209 5.137-7.102 2.928-10.928z"/><path d="m168 336h176c13.233 0 24-10.767 24-24v-160c0-13.233-10.767-24-24-24h-8v-48c0-44.112-35.888-80-80-80s-80 35.888-80 80v48h-8c-13.233 0-24 10.767-24 24v160c0 13.233 10.767 24 24 24zm24-256c0-35.29 28.71-64 64-64s64 28.71 64 64v48h-16v-48c0-26.467-21.533-48-48-48s-48 21.533-48 48v48h-16zm96 48h-64v-48c0-17.645 14.355-32 32-32s32 14.355 32 32zm-128 24c0-4.411 3.589-8 8-8h176c4.411 0 8 3.589 8 8v160c0 4.411-3.589 8-8 8h-176c-4.411 0-8-3.589-8-8z"/><path d="m232 248.001v15.999c0 13.234 10.767 24 24 24 13.234 0 24-10.766 24-24v-15.987c10.848-8.102 16.861-21.062 15.901-34.854-2.324-33.392-42.635-49.347-67.206-26.387-18.143 16.953-16.623 46.238 3.305 61.229zm7.62-49.54c14.756-13.789 38.929-4.177 40.32 15.807.644 9.26-3.933 17.892-11.946 22.527-2.472 1.43-3.994 4.069-3.994 6.925v20.28c0 4.411-3.589 8-8 8s-8-3.589-8-8v-20.28c0-2.855-1.522-5.495-3.994-6.925-13.782-7.972-16.3-27.201-4.386-38.334z"/></g></svg>