<svg id="Layer_1" enable-background="new 0 0 511.928 511.928" height="512" viewBox="0 0 511.928 511.928" width="512" xmlns="http://www.w3.org/2000/svg"><g><path d="m462.807 49.125c-65.504-65.494-172.089-65.493-237.594.001-52.994 53.004-64.39 134.385-28.533 199.624-4.029 7.755-2.96 17.787 3.813 24.559l2.095 2.095-33.942 33.941c-5.469-5.469-7.099-8.003-11.316-8.003-2.122 0-4.157.843-5.657 2.343l-139.362 139.374c-26.032 25.348-7.935 68.864 27.699 68.864 10.419 0 20.234-4.021 27.657-11.094.483-.47-10.052 10.053 140.58-140.569 3.122-3.122 3.125-8.19 0-11.314l-5.659-5.659 33.941-33.941 2.094 2.094c6.753 6.754 16.783 7.855 24.56 3.813 65.724 36.125 147.022 24.059 199.625-28.534 65.494-65.504 65.494-172.088-.001-237.594zm-405.283 439.221c-5.208 5.208-11.068 7.577-17.513 7.577-21.187 0-32.432-25.948-16.503-41.434.157-.154-2.018 2.02 133.823-133.832l33.946 33.946zm133.752-156.375-11.313-11.313 33.94-33.94 11.313 11.314zm260.218-56.565c-49.075 49.065-125.028 58.725-184.707 23.488-3.142-1.856-7.143-1.349-9.725 1.232-.952.952-2.217 1.476-3.563 1.476-2.733 0-3.178-1.091-11.297-9.209-5.606-5.55 15.075 15.075-30.397-30.397-1.97-1.97-1.969-5.156 0-7.126 2.581-2.581 3.088-6.581 1.232-9.724-35.236-59.677-25.577-135.631 23.487-184.706 59.268-59.256 155.701-59.257 214.967-.001 59.259 59.267 59.259 155.701.003 214.967z"/><path d="m434.52 77.413c-49.907-49.907-131.112-49.907-181.02 0-49.907 49.907-49.907 131.112 0 181.02 49.905 49.905 131.111 49.908 181.02 0 49.907-49.908 49.907-131.113 0-181.02zm-11.313 169.706c-43.666 43.665-114.719 43.672-158.393 0-43.668-43.669-43.668-114.724 0-158.393 43.669-43.668 114.723-43.668 158.393 0 43.668 43.67 43.668 114.724 0 158.393z"/></g></svg>