<svg id="Layer_1" enable-background="new 0 0 512.115 512.115" height="512" viewBox="0 0 512.115 512.115" width="512" xmlns="http://www.w3.org/2000/svg"><g><path d="m437.077 75.038c-100.044-100.043-261.98-100.058-362.039 0-100.044 100.045-100.057 261.981 0 362.039 100.044 100.043 261.98 100.058 362.039 0 100.044-100.045 100.057-261.981 0-362.039zm-181.02 421.019c-132.336 0-240-107.664-240-240s107.664-240 240-240 240 107.664 240 240-107.664 240-240 240z"/><path d="m439.412 327.355c-27.093-38.532-65.645-67.54-109.727-82.893 24.266-21.126 38.372-51.657 38.372-84.405 0-61.757-50.243-112-112-112s-112 50.243-112 112c0 32.747 14.105 63.277 38.372 84.405-44.082 15.353-82.634 44.361-109.727 82.893-4.96 7.056-5.602 16.178-1.674 23.808 35.347 68.658 106.205 112.894 185.028 112.894 78.779 0 149.66-44.195 185.029-112.895 3.929-7.628 3.287-16.751-1.673-23.807zm-279.355-167.298c0-52.935 43.065-96 96-96s96 43.065 96 96c0 32.742-16.443 62.913-43.983 80.705-.002.001-.003.002-.005.003-31.522 20.344-72.334 20.451-104.023 0-.002-.001-.003-.002-.005-.003-27.541-17.794-43.984-47.964-43.984-80.705zm266.804 183.782c-71.476 138.829-270.117 138.859-341.606 0-1.195-2.321-.989-5.111.537-7.282 27.352-38.899 67.264-67.356 112.676-80.42 34.293 20.637 78.856 21.794 115.18 0 45.412 13.064 85.324 41.521 112.676 80.42 1.525 2.172 1.732 4.962.537 7.282z"/></g></svg>