<svg id="Layer_1" enable-background="new 0 0 512 512" height="512" viewBox="0 0 512 512" width="512" xmlns="http://www.w3.org/2000/svg"><g><path d="m112 0h-88c-13.233 0-24 10.767-24 24v88c0 8.822 7.178 16 16 16h32c8.822 0 16-7.178 16-16v-48h48c8.822 0 16-7.178 16-16v-32c0-8.822-7.178-16-16-16zm0 16v32h-56c-4.418 0-8 3.582-8 8v56h-32v-88c0-4.411 3.589-8 8-8 88.931-.01 88-.1 88 0z"/><path d="m112 416h-48v-48c0-8.822-7.178-16-16-16h-32c-8.822 0-16 7.178-16 16v88c0 13.233 10.767 24 24 24h88c8.822 0 16-7.178 16-16v-32c0-8.822-7.178-16-16-16zm0 48h-88c-4.411 0-8-3.589-8-8v-88h32v56c0 4.418 3.582 8 8 8h56z"/><path d="m368 64h48v48c0 8.822 7.178 16 16 16h32c8.822 0 16-7.178 16-16v-88c0-13.233-10.767-24-24-24h-88c-8.822 0-16 7.178-16 16v32c0 8.822 7.178 16 16 16zm0-48h88c4.411 0 8 3.589 8 8 .01 88.931.1 88 0 88h-32v-56c0-4.418-3.582-8-8-8h-56z"/><path d="m192 64h96c8.822 0 16-7.178 16-16v-32c0-8.822-7.178-16-16-16h-96c-8.822 0-16 7.178-16 16v32c0 8.822 7.178 16 16 16zm0-48c97.194-.01 96-.1 96 0v32h-96z"/><path d="m288 416h-96c-8.822 0-16 7.178-16 16v32c0 8.822 7.178 16 16 16h96c8.822 0 16-7.178 16-16v-32c0-8.822-7.178-16-16-16zm0 16v32h-96v-32c97.194-.01 96-.1 96 0z"/><path d="m16 304h32c8.822 0 16-7.178 16-16v-96c0-8.822-7.178-16-16-16h-32c-8.822 0-16 7.178-16 16v96c0 8.822 7.178 16 16 16zm0-112h32l.01 96c-.101.017-2.601 0-32.01 0z"/><path d="m496 416h-16v-48c0-8.822-7.178-16-16-16h-32c-8.822 0-16 7.178-16 16v48h-48c-8.822 0-16 7.178-16 16v32c0 8.822 7.178 16 16 16h48v16c0 8.822 7.178 16 16 16h32c8.822 0 16-7.178 16-16v-16h16c8.822 0 16-7.178 16-16v-32c0-8.822-7.178-16-16-16zm0 16v32h-24c-4.418 0-8 3.582-8 8v24h-32v-24c0-4.418-3.582-8-8-8h-56v-32h56c4.418 0 8-3.582 8-8v-56h32v56c0 4.418 3.582 8 8 8 23.913-.01 24-.1 24 0z"/><path d="m464 176h-32c-8.822 0-16 7.178-16 16v96c0 8.822 7.178 16 16 16h32c8.822 0 16-7.178 16-16v-96c0-8.822-7.178-16-16-16zm0 112h-32v-96h32z"/><path d="m296 208h-24v-24c0-13.234-10.767-24-24-24h-16c-13.233 0-24 10.766-24 24v24h-24c-13.233 0-24 10.766-24 24v16c0 13.234 10.767 24 24 24h24v24c0 13.234 10.767 24 24 24h16c13.233 0 24-10.766 24-24v-24h24c13.233 0 24-10.766 24-24v-16c0-13.234-10.767-24-24-24zm8 40c0 4.411-3.589 8-8 8h-32c-4.418 0-8 3.582-8 8v32c0 4.411-3.589 8-8 8h-16c-4.411 0-8-3.589-8-8v-32c0-4.418-3.582-8-8-8h-32c-4.411 0-8-3.589-8-8v-16c0-4.411 3.589-8 8-8h32c4.418 0 8-3.582 8-8v-32c0-4.411 3.589-8 8-8h16c4.411 0 8 3.589 8 8v32c0 4.418 3.582 8 8 8h32c4.411 0 8 3.589 8 8z"/></g></svg>