<svg id="Layer_1" enable-background="new 0 0 512 512" height="512" viewBox="0 0 512 512" width="512" xmlns="http://www.w3.org/2000/svg"><g><path d="m472.988 88.146-99.225-79.381c-7.065-5.653-15.939-8.765-24.988-8.765-51.417 0-214.71 0-284.775 0-22.056 0-40 17.944-40 40v432c0 22.056 17.944 40 40 40h384c22.056 0 40-17.944 40-40v-352.62c0-12.218-5.472-23.603-15.012-31.234zm-120.988-71.906v71.76c0 13.233-10.767 24-24 24h-208c-13.233 0-24-10.767-24-24v-72h136v48c0 8.822 7.178 16 16 16h48c8.822 0 16-7.178 16-16v-48c39.888 0 37.501-.101 40 .24zm-55.999-.24c.009 48.32.099 48-.001 48h-48v-48zm87.999 352h-288v-24c0-13.233 10.766-24 24-24h240c13.234 0 24 10.767 24 24zm-288 128v-112h288v112zm376-24c0 13.233-10.766 24-24 24h-48v-152c0-22.056-17.944-40-40-40h-240c-22.056 0-40 17.944-40 40v152h-16c-13.234 0-24-10.767-24-24v-432c0-13.233 10.766-24 24-24h16v72c0 22.056 17.944 40 40 40h208c22.056 0 40-17.944 40-40v-63.355l94.993 75.995c5.724 4.579 9.007 11.409 9.007 18.74z"/></g></svg>