<svg id="Layer_1" enable-background="new 0 0 512 512" height="512" viewBox="0 0 512 512" width="512" xmlns="http://www.w3.org/2000/svg"><g><path d="m352 64h-40v-40c0-13.233-10.767-24-24-24h-64c-13.234 0-24 10.767-24 24v40h-40c-22.056 0-40 17.944-40 40v368c0 22.056 17.944 40 40 40h192c22.056 0 40-17.944 40-40v-368c0-22.056-17.944-40-40-40zm24 408c0 13.233-10.767 24-24 24h-192c-13.234 0-24-10.767-24-24v-368c0-13.233 10.766-24 24-24h40c8.822 0 16-7.178 16-16v-40c0-4.411 3.589-8 8-8h64c4.411 0 8 3.589 8 8v40c0 8.822 7.178 16 16 16h40c13.233 0 24 10.767 24 24z"/><path d="m344 96h-176c-8.822 0-16 7.178-16 16v352c0 8.822 7.178 16 16 16h176c8.822 0 16-7.178 16-16v-352c0-8.822-7.178-16-16-16zm0 368h-176v-352h176c.01 356.028.1 352 0 352z"/></g></svg>