<svg id="Layer_1" enable-background="new 0 0 512.019 512.019" height="512" viewBox="0 0 512.019 512.019" width="512" xmlns="http://www.w3.org/2000/svg"><g><path d="m440.905 171.065-320.818-163.822c-43.473-22.202-96.072 9.245-96.072 58.814v363.923c0 49.592 52.625 81.005 96.071 58.814l32.734-16.715c4.487 22.642 27.521 39.94 55.195 39.94 30.879 0 56-21.532 56-48v-48.723l128-65.36v34.566c-34.639-4.224-64 19.048-64 47.517 0 26.468 25.121 48 56 48s56-21.532 56-48v-106.592c64.642-32.995 63.03-122.63.89-154.362zm-176.89 226.266v-62.328l128-29.537v26.505zm160 34.688c0 17.645-17.944 32-40 32s-40-14.355-40-32c0-22.565 28.226-37.595 53.73-30.05 5.126 1.52 10.27-2.333 10.27-7.671v-98.889c0-5.139-4.787-8.952-9.799-7.795l-144 33.229c-3.63.837-6.201 4.069-6.201 7.795v135.38c0 17.645-17.944 32-40 32s-40-14.355-40-32c0-22.265 26.967-36.62 51.557-30.628 6.493 4.362 15.356-2.414 12.443-9.843v-138.798c0-3.75 2.547-6.955 6.199-7.795l175.996-40.62c5.016-1.154 9.805 2.644 9.805 7.794zm16-124.984v-62.907c0-15.442-14.359-26.848-29.398-23.385l-175.994 40.62c-10.956 2.52-18.607 12.137-18.607 23.386v131.753c-30.382-3.705-56.8 13.839-62.731 37.375l-40.474 20.667c-32.938 16.825-72.795-7.005-72.795-44.564v-363.922c0-37.575 39.87-61.38 72.796-44.564l320.816 163.821c48.465 24.747 51.491 92.473 6.387 121.72z"/></g></svg>