<svg id="Layer_1" enable-background="new 0 0 512.008 512.008" height="512" viewBox="0 0 512.008 512.008" width="512" xmlns="http://www.w3.org/2000/svg"><g><path d="m509.665 2.343c-3.124-3.123-8.189-3.123-11.313 0l-44.302 44.301c-6.324-4.194-13.901-6.644-22.042-6.644h-162.745c-10.686 0-20.73 4.161-28.284 11.716l-230.143 230.142c-14.448 14.45-14.45 37.831 0 52.284l167.029 167.028c14.446 14.448 37.835 14.451 52.285.001 27.856-27.856 223.171-223.171 230.143-230.143 7.555-7.556 11.715-17.601 11.715-28.284v-162.744c0-8.141-2.45-15.717-6.644-22.042l44.301-44.301c3.125-3.125 3.125-8.189 0-11.314zm-53.657 77.657v162.745c0 6.41-2.497 12.438-7.029 16.971l-230.143 230.142c-8.195 8.195-21.461 8.196-29.657-.001l-167.028-167.028c-8.195-8.197-8.198-21.459 0-29.657l230.142-230.143c4.532-4.533 10.559-7.029 16.97-7.029h162.745c3.701 0 7.207.843 10.341 2.345l-38.553 38.553c-31.46-22.423-75.788.011-75.788 39.102 0 26.468 21.533 48 48 48 39.092 0 61.523-44.329 39.102-75.788l38.553-38.553c1.502 3.133 2.345 6.64 2.345 10.341zm-80 88c-17.645 0-32-14.355-32-32 0-24.695 26.987-40.133 48.242-27.556l-21.898 21.898c-3.125 3.125-3.125 8.189 0 11.314 3.125 3.124 8.189 3.123 11.313 0l21.899-21.899c12.564 21.235-2.834 48.243-27.556 48.243z"/></g></svg>