<svg id="Layer_1" enable-background="new 0 0 512 512" height="512" viewBox="0 0 512 512" width="512" xmlns="http://www.w3.org/2000/svg"><g><path d="m488 240c13.233 0 24-10.767 24-24v-112c0-13.233-10.767-24-24-24h-8v-24c0-13.233-10.767-24-24-24h-400c-13.233 0-24 10.767-24 24v24h-8c-13.233 0-24 10.767-24 24v112c0 13.233 10.767 24 24 24h8v32h-8c-13.233 0-24 10.767-24 24v112c0 13.233 10.767 24 24 24h8v24c0 13.233 10.767 24 24 24h400c13.233 0 24-10.767 24-24v-24h8c13.233 0 24-10.767 24-24v-112c0-13.233-10.767-24-24-24h-8v-32zm-440-184c0-4.411 3.589-8 8-8h400c4.411 0 8 3.589 8 8v24h-416zm-32 160v-112c0-4.411 3.589-8 8-8h464c4.411 0 8 3.589 8 8v112c0 4.411-3.589 8-8 8-85.155 0-378.806 0-464 0-4.411 0-8-3.589-8-8zm448 240c0 4.411-3.589 8-8 8h-400c-4.411 0-8-3.589-8-8v-24h416zm32-160v112c0 4.411-3.589 8-8 8-85.155 0-378.806 0-464 0-4.411 0-8-3.589-8-8v-112c0-4.411 3.589-8 8-8h464c4.411 0 8 3.589 8 8zm-32-24h-416v-32h416z"/><path d="m64 200c13.233 0 24-10.767 24-24v-32c0-13.233-10.767-24-24-24s-24 10.767-24 24v32c0 13.233 10.767 24 24 24zm-8-56c0-4.411 3.589-8 8-8s8 3.589 8 8v32c0 4.411-3.589 8-8 8s-8-3.589-8-8z"/><path d="m128 200c13.233 0 24-10.767 24-24v-32c0-13.233-10.767-24-24-24s-24 10.767-24 24v32c0 13.233 10.767 24 24 24zm-8-56c0-4.411 3.589-8 8-8s8 3.589 8 8v32c0 4.411-3.589 8-8 8s-8-3.589-8-8z"/><path d="m192 200c13.233 0 24-10.767 24-24v-32c0-13.233-10.767-24-24-24s-24 10.767-24 24v32c0 13.233 10.767 24 24 24zm-8-56c0-4.411 3.589-8 8-8s8 3.589 8 8v32c0 4.411-3.589 8-8 8s-8-3.589-8-8z"/><path d="m272 184h176c13.233 0 24-10.767 24-24s-10.767-24-24-24h-176c-13.233 0-24 10.767-24 24s10.767 24 24 24zm0-32h176c4.411 0 8 3.589 8 8s-3.589 8-8 8h-176c-4.411 0-8-3.589-8-8s3.589-8 8-8z"/><path d="m64 312c-13.233 0-24 10.767-24 24v32c0 13.233 10.767 24 24 24s24-10.767 24-24v-32c0-13.233-10.767-24-24-24zm8 56c0 4.411-3.589 8-8 8s-8-3.589-8-8v-32c0-4.411 3.589-8 8-8s8 3.589 8 8z"/><path d="m128 312c-13.233 0-24 10.767-24 24v32c0 13.233 10.767 24 24 24s24-10.767 24-24v-32c0-13.233-10.767-24-24-24zm8 56c0 4.411-3.589 8-8 8s-8-3.589-8-8v-32c0-4.411 3.589-8 8-8s8 3.589 8 8z"/><path d="m192 312c-13.233 0-24 10.767-24 24v32c0 13.233 10.767 24 24 24s24-10.767 24-24v-32c0-13.233-10.767-24-24-24zm8 56c0 4.411-3.589 8-8 8s-8-3.589-8-8v-32c0-4.411 3.589-8 8-8s8 3.589 8 8z"/><path d="m448 328h-176c-13.233 0-24 10.767-24 24s10.767 24 24 24h176c13.233 0 24-10.767 24-24s-10.767-24-24-24zm0 32h-176c-4.411 0-8-3.589-8-8s3.589-8 8-8h176c4.411 0 8 3.589 8 8s-3.589 8-8 8z"/></g></svg>