<svg id="Layer_1" enable-background="new 0 0 512.086 512.086" height="512" viewBox="0 0 512.086 512.086" width="512" xmlns="http://www.w3.org/2000/svg"><g><path d="m437.035 75.008c-101.95-101.949-266.415-99.037-365.021 3.025v-22.005c0-8.822-7.178-16-16-16h-32c-8.822 0-16 7.178-16 16v120c0 8.822 7.178 16 16 16h112c8.822 0 16-7.178 16-16v-32c0-8.822-7.178-16-16-16h-23.125c36.415-40.867 87.715-64 143.125-64 105.869 0 192 86.131 192 192s-86.131 192-192 192-192-86.131-192-192c0-17.645-14.355-32-32-32s-32 14.355-32 32c0 68.382 26.628 132.669 74.979 181.021 100.044 100.045 261.988 100.053 362.041 0 100.043-100.042 100.057-261.985.001-362.041zm-181.021 421.02c-132.336 0-240-107.664-240-240 0-8.822 7.178-16 16-16s16 7.178 16 16c0 114.691 93.309 208 208 208s208-93.309 208-208-93.309-208-208-208c-67.846 0-128.34 32.518-166.406 83.195-2.659 3.546-1.902 8.581 1.592 11.201 2.943 2.208 2.233 1.604 44.814 1.604v32h-112v-120h32c0 46.701-.148 43.719.346 45.345 1.651 5.436 8.329 7.473 12.726 3.86 3.628-2.989 65.638-89.206 186.928-89.206 132.336 0 240 107.664 240 240s-107.664 240.001-240 240.001z"/></g></svg>