<svg id="Layer_1" enable-background="new 0 0 512 512" height="512" viewBox="0 0 512 512" width="512" xmlns="http://www.w3.org/2000/svg"><g><path d="m456 0h-400c-30.879 0-56 25.121-56 56v400c0 30.879 25.121 56 56 56h400c30.879 0 56-25.121 56-56v-400c0-30.879-25.121-56-56-56zm40 456c0 22.056-17.944 40-40 40h-400c-22.056 0-40-17.944-40-40v-400c0-22.056 17.944-40 40-40h400c22.056 0 40 17.944 40 40z"/><path d="m480 56c0-13.233-10.767-24-24-24h-400c-13.233 0-24 10.767-24 24v400c0 13.233 10.767 24 24 24h400c13.233 0 24-10.767 24-24 0-81.72 0-368.639 0-400zm-424-8h400c4.411 0 8 3.589 8 8v222.242l-62.373-90.724c-18.219-26.501-57.975-26.053-75.288 1.645l-65.814 105.303-27.31-42.481c-17.742-27.6-58.286-26.235-74.387 1.941l-110.828 193.949v-391.875c0-4.411 3.589-8 8-8zm400 416h-398.786l115.507-202.137c10.174-17.803 35.807-18.693 47.035-1.227l61.515 95.689c2.388 3.716 7.337 4.791 11.056 2.403 3.717-2.39 4.792-7.339 2.403-11.056l-24.703-38.427c.71-.817-4.274 7.043 69.881-111.604 11.158-17.852 36.786-18.151 48.534-1.061l75.558 109.905v149.515c0 4.411-3.589 8-8 8z"/><path d="m128 176c26.468 0 48-21.532 48-48s-21.532-48-48-48-48 21.532-48 48 21.532 48 48 48zm0-80c17.645 0 32 14.355 32 32s-14.355 32-32 32-32-14.355-32-32 14.355-32 32-32z"/></g></svg>