<svg id="Layer_1" enable-background="new 0 0 511.999 511.999" height="512" viewBox="0 0 511.999 511.999" width="512" xmlns="http://www.w3.org/2000/svg"><g><path d="m257.303.004c-46.721-.316-88.703 18.06-119.629 48.755-66.841 66.346-66.315 174.742 1.916 240.35 22.655 21.784 36.434 52.527 36.434 86.891v56c0 15.049 10.446 27.698 24.465 31.096 3.5 27.539 27.061 48.904 55.535 48.904s52.035-21.366 55.535-48.904c14.02-3.398 24.465-16.047 24.465-31.096v-56c0-34.731 13.825-64.893 37.139-87.572 32.792-31.899 50.854-74.659 50.861-120.403.013-91.962-74.778-167.335-166.721-168.021zm-1.28 495.995c-19.316 0-35.479-13.765-39.196-32h78.393c-3.717 18.235-19.88 32-39.197 32zm48-48h-96c-8.822 0-16-7.178-16-16v-8h64c4.418 0 8-3.582 8-8s-3.582-8-8-8h-64v-24h128v24h-32c-4.418 0-8 3.582-8 8s3.582 8 8 8h32v8c0 8.822-7.177 16-16 16zm57.983-171.041c-24.971 24.292-39.975 57.142-41.795 91.041h-53.088l50.667-152h10.233c4.418 0 8-3.582 8-8s-3.582-8-8-8c-63.752 0 108.073 0-144 0-4.418 0-8 3.582-8 8s3.582 8 8 8h10.233l50.667 152h-53.082c-1.78-34.133-16.559-66.766-41.162-90.424-30.087-28.93-46.656-67.845-46.656-109.576 0-83.94 67.908-152 151.992-152 83.842 0 152.02 68.538 152.008 152.022-.005 41.387-16.348 80.076-46.017 108.937zm-105.983 73.743-44.9-134.702h89.8z"/></g></svg>