<svg id="Layer_1" enable-background="new 0 0 512.092 512.092" height="512" viewBox="0 0 512.092 512.092" width="512" xmlns="http://www.w3.org/2000/svg"><g><path d="m261.554 499.069c-28.296 0-42.826-34.412-22.627-54.611l176.322-176.322c43.668-43.669 43.668-114.723 0-158.392-43.77-43.77-114.616-43.776-158.392 0l-174.173 174.172c-12.088 12.088-18.745 28.16-18.745 45.255 0 35.37 28.624 64 64 64 17.095 0 33.167-6.657 45.255-18.746l174.172-174.172c6.252-6.251 6.254-16.374 0-22.628-6.238-6.237-16.389-6.238-22.627.001l-174.172 174.172c-12.506 12.506-32.747 12.508-45.254-.001-12.505-12.503-12.507-32.747 0-45.254l174.172-174.172c15.11-15.109 35.2-23.432 56.568-23.432 44.211 0 80 35.78 80 80 0 21.369-8.322 41.459-23.432 56.569l-174.172 174.173c-50.022 50.022-130.991 50.028-181.019 0-49.907-49.908-49.907-131.113 0-181.021l174.172-174.172c68.622-68.621 180.279-68.621 248.901 0 68.78 68.78 68.79 180.112 0 248.902-7.521-7.521-7.564-7.565 0 0l-176.321 176.323c-6.239 6.237-14.433 9.356-22.628 9.356zm165.008-400.639c49.907 49.907 49.908 131.112 0 181.021l-176.321 176.321c-6.238 6.238-6.238 16.389 0 22.627 6.238 6.239 16.389 6.239 22.627 0 181.587-181.588 176.22-176.322 176.322-176.322 62.528-62.528 62.536-163.738 0-226.273-62.385-62.386-163.891-62.386-226.274 0l-174.172 174.171c-43.668 43.669-43.668 114.723 0 158.392 43.77 43.77 114.616 43.776 158.392 0l174.172-174.172c12.088-12.088 18.745-28.16 18.745-45.255 0-35.37-28.625-64-64-64-17.095 0-33.167 6.657-45.255 18.746l-174.172 174.172c-6.252 6.251-6.254 16.373 0 22.626 6.254 6.255 16.372 6.254 22.627.001l174.172-174.173c12.477-12.475 32.778-12.477 45.255 0 12.505 12.507 12.508 32.748 0 45.256l-174.172 174.171c-15.11 15.109-35.2 23.432-56.568 23.432-44.211 0-80-35.78-80-80 0-21.369 8.321-41.459 23.432-56.569l174.171-174.172c50.022-50.022 130.991-50.028 181.019 0z"/></g></svg>