<svg id="Layer_1" enable-background="new 0 0 512 512" height="512" viewBox="0 0 512 512" width="512" xmlns="http://www.w3.org/2000/svg"><g><path d="m256 80c-97.047 0-176 78.953-176 176s78.953 176 176 176 176-78.953 176-176-78.953-176-176-176zm0 336c-88.224 0-160-71.775-160-160s71.776-160 160-160 160 71.775 160 160-71.776 160-160 160z"/><path d="m272.991 121.052c-4.796-.59-8.991 3.146-8.991 7.938v254.02c0 4.809 4.215 8.531 8.991 7.938 67.846-8.468 119.009-66.482 119.009-134.948s-51.163-126.48-119.009-134.948zm7.009 252.55v-235.204c55.327 11.217 96 60.254 96 117.602s-40.673 106.385-96 117.602z"/><path d="m256 64c17.645 0 32-14.355 32-32s-14.355-32-32-32-32 14.355-32 32 14.355 32 32 32zm0-48c8.822 0 16 7.178 16 16s-7.178 16-16 16-16-7.178-16-16 7.178-16 16-16z"/><path d="m480 224c-17.645 0-32 14.355-32 32s14.355 32 32 32 32-14.355 32-32-14.355-32-32-32zm0 48c-8.822 0-16-7.178-16-16s7.178-16 16-16 16 7.178 16 16-7.178 16-16 16z"/><path d="m256 448c-17.645 0-32 14.355-32 32s14.355 32 32 32 32-14.355 32-32-14.355-32-32-32zm0 48c-8.822 0-16-7.178-16-16s7.178-16 16-16 16 7.178 16 16-7.178 16-16 16z"/><path d="m32 224c-17.645 0-32 14.355-32 32s14.355 32 32 32 32-14.355 32-32-14.355-32-32-32zm0 48c-8.822 0-16-7.178-16-16s7.178-16 16-16 16 7.178 16 16-7.178 16-16 16z"/><path d="m97.608 129.593c17.589 0 32-14.191 32-31.984 0-28.404-34.472-42.782-54.627-22.628-20.227 20.226-5.643 54.612 22.627 54.612zm-11.313-43.299c10.074-10.072 27.313-2.847 27.313 11.314 0 14.105-17.182 21.444-27.313 11.314-6.253-6.252-6.255-16.373 0-22.628z"/><path d="m414.392 65.608c-17.686 0-32 14.311-32 32 0 28.504 34.639 42.612 54.627 22.628 0 0 0 0 0-.001 20.259-20.259 5.585-54.627-22.627-54.627zm11.314 43.314c-10.016 10.017-27.313 2.903-27.313-11.313 0-8.842 7.154-16 16-16 14.363-.001 21.268 17.359 11.313 27.313z"/><path d="m391.764 391.765c-20.258 20.259-5.585 54.627 22.627 54.627 17.687 0 32-14.312 32-32 .001-28.446-34.606-42.645-54.627-22.627zm33.941 33.941c-10.074 10.072-27.313 2.847-27.313-11.314 0-8.901 7.209-15.992 16-15.992 14.23-.001 21.334 17.285 11.313 27.306z"/><path d="m74.981 391.764c.436 0-9.373 7.528-9.373 22.628 0 17.686 14.311 32 32 32 17.686 0 32-14.311 32-32 0-28.252-34.405-42.845-54.627-22.628zm33.94 33.942c-6.252 6.251-16.372 6.254-22.627-.001-6.252-6.251-6.254-16.374 0-22.628v.001c6.238-6.24 16.389-6.237 22.627-.001 6.253 6.253 6.255 16.374 0 22.629z"/></g></svg>