<svg id="Layer_1" enable-background="new 0 0 512.1 512.1" height="512" viewBox="0 0 512.1 512.1" width="512" xmlns="http://www.w3.org/2000/svg"><g><path d="m509.757 251.449-90.343-90.343c-6.24-6.238-16.389-6.238-22.629 0l-20.685 20.685c-6.238 6.239-6.238 16.39 0 22.629l12.687 12.686h-52.687v-192c0-13.233-10.767-24-24-24-324.361 0-305.442-.838-308.705 1.54-.816.595-1.501 1.319-2.052 2.19-1.867 2.954-1.243-27.858-1.243 452.27 0 3.217 1.944 6.089 4.8 7.33.312.136 207.982 46.703 211.229 46.703 8.671 0 15.972-7.043 15.972-16.005v-30.027h80c13.233 0 24-10.767 24-24v-144h52.687l-12.688 12.684c-6.238 6.239-6.238 16.39 0 22.629l20.686 20.686c6.24 6.238 16.388 6.238 22.629 0l90.343-90.343c3.123-3.125 3.123-8.189-.001-11.314zm-293.657 243.684-200-44.445v-431.609l200 44.444zm104-54.027c0 4.411-3.589 8-8 8h-80v-385.583c0-7.557-5.152-13.979-12.529-15.619l-138.592-30.798h231.121c4.411 0 8 3.589 8 8v192h-40c-8.822 0-16 7.178-16 16v48c0 8.822 7.178 16 16 16h40zm88-99.315-20.686-20.686 26.343-26.343c5.021-5.021 1.465-13.657-5.657-13.657h-128v-48h128c7.124 0 10.677-8.637 5.657-13.657l-26.343-26.343 20.686-20.685 84.687 84.686z"/><path d="m168.1 233.106c-13.233 0-24 10.767-24 24s10.767 24 24 24 24-10.767 24-24-10.766-24-24-24zm0 32c-4.411 0-8-3.589-8-8s3.589-8 8-8 8 3.589 8 8-3.589 8-8 8z"/></g></svg>