<svg id="Layer_1" enable-background="new 0 0 512.115 512.115" height="512" viewBox="0 0 512.115 512.115" width="512" xmlns="http://www.w3.org/2000/svg"><g><path d="m437.077 75.038c-100.045-100.044-261.981-100.057-362.039 0-100.043 100.044-100.058 261.98 0 362.039 100.045 100.044 261.981 100.057 362.039 0 100.043-100.044 100.058-261.98 0-362.039zm-181.02 421.019c-132.336 0-240-107.664-240-240s107.664-240 240-240 240 107.664 240 240-107.663 240-240 240z"/><path d="m332.057 304.057h-28v-24.044c17.41-13.1 29.322-33.129 31.599-55.956h8.401c17.645 0 29.248-18.506 21.654-34.341 1.449-1.448 2.346-3.449 2.346-5.659v-16c0-61.757-50.243-112-112-112s-112 50.243-112 112v24c0 2.21.896 4.211 2.346 5.659-7.597 15.842 4.016 34.341 21.654 34.341h9.61c3.971 19.483 15.045 36.411 30.39 47.956v24.044h-28c-37.495 0-68 30.505-68 68v30.64c0 2.225.927 4.35 2.558 5.863 79.675 73.959 203.11 74.052 282.885 0 1.631-1.514 2.558-3.639 2.558-5.863v-30.64c-.001-37.495-30.505-68-68.001-68zm12-96h-8v-16h8c4.411 0 8 3.589 8 8s-3.588 8-8 8zm-184-40c0-52.935 43.065-96 96-96s96 43.065 96 96v8c-5.596 0-10.404 0-16 0v-8c0-4.418-3.582-8-8-8-12.347 0-23.808-6.133-30.656-16.406-2.558-3.838-4.007-7.104-8.555-7.555-2.386-.244-4.75.609-6.445 2.304-13.966 13.966-32.534 21.657-52.284 21.657h-46.059c-4.418 0-8 3.582-8 8v16c-5.596 0-10.404 0-16 0v-16zm8 48c-4.411 0-8-3.589-8-8s3.589-8 8-8h8v16zm24 0c0-13.903 0-26.139 0-40h38.059c20.836 0 40.591-7.038 56.55-19.988 8.32 10.496 20.245 17.383 33.391 19.384v40.604c0 35.29-28.71 64-64 64s-64-28.709-64-64zm96 73.3v14.7c0 17.645-14.355 32-32 32s-32-14.355-32-32v-14.7c19.863 8.705 43.09 9.164 64 0zm96 109.809c-72.83 65.222-183.218 65.179-256 0v-27.108c0-28.673 23.327-52 52-52h30.752c6.605 18.622 24.389 32 45.248 32s38.643-13.378 45.248-32h30.752c28.673 0 52 23.327 52 52z"/></g></svg>