<svg id="Layer_1" enable-background="new 0 0 512.114 512.114" height="512" viewBox="0 0 512.114 512.114" width="512" xmlns="http://www.w3.org/2000/svg"><g><path d="m437.077 75.037c-100.045-100.045-261.986-100.054-362.04 0-100.045 100.045-100.054 261.986 0 362.04 100.044 100.045 261.986 100.055 362.04 0 100.046-100.045 100.054-261.986 0-362.04zm-181.02 421.02c-132.34 0-240-107.66-240-240s107.66-240 240-240 240 107.66 240 240-107.66 240-240 240z"/><path d="m368.057 314.397v-146.34c0-61.76-50.24-112-112-112s-112 50.24-112 112v146.34c-19.2 12.021-32 33.37-32 57.66v30.64c0 2.221.93 4.351 2.56 5.86 79.667 73.963 203.113 74.056 282.88 0 1.63-1.51 2.56-3.64 2.56-5.86v-30.64c0-24.29-12.8-45.639-32-57.66zm-208-146.34c0-52.93 43.07-96 96-96s96 43.07 96 96v139c-11.858-3.659-16.959-3-48-3v-24.044c19.418-14.609 32-37.84 32-63.956 0-10.261 0-37.525 0-48 0-3.3.123-2.238-17.344-28.438-2.789-4.185-8.732-4.799-12.313-1.22-13.966 13.966-32.534 21.657-52.284 21.657h-70.059c-4.418 0-8 3.582-8 8v48c0 26.116 12.582 49.347 32 63.956v24.044c-29.596 0-35.747-.781-48 3zm32 8h62.059c20.776 0 40.475-6.995 56.41-19.875l9.531 14.297v45.578c0 35.29-28.71 64-64 64s-64-28.71-64-64c0-13.903 0-26.139 0-40zm32 128v-14.7c19.862 8.705 43.09 9.164 64 0v14.7c0 17.645-14.355 32-32 32s-32-14.355-32-32zm160 95.111c-72.843 65.234-183.236 65.163-256 0v-27.11c0-28.777 23.422-52 52-52h30.752c6.605 18.622 24.389 32 45.248 32s38.643-13.378 45.248-32h30.752c28.551 0 52 23.197 52 52z"/></g></svg>