<svg id="Layer_1" enable-background="new 0 0 512 512" height="512" viewBox="0 0 512 512" width="512" xmlns="http://www.w3.org/2000/svg"><g><path d="m414.909 448h-14.909v-89.328c0-42.02-21.273-80.401-56.935-102.651 0 0 .008-.008.029-.021 35.633-22.271 56.906-60.652 56.906-102.672v-89.328h14.909c18.246 0 33.091-14.355 33.091-32s-14.845-32-33.091-32h-317.818c-18.247 0-33.091 14.355-33.091 32s14.844 32 33.091 32h14.909v89.328c0 42.02 21.273 80.401 56.905 102.672-35.632 22.271-56.905 60.652-56.905 102.672v89.328h-14.909c-18.247 0-33.091 14.355-33.091 32s14.844 32 33.091 32h317.818c18.246 0 33.091-14.355 33.091-32s-14.845-32-33.091-32zm-334.909-416c0-8.822 7.667-16 17.091-16h317.818c9.424 0 17.091 7.178 17.091 16s-7.667 16-17.091 16c-29.155 0-302.047 0-317.818 0-9.424 0-17.091-7.178-17.091-16zm48 326.672c0-36.467 18.462-69.776 49.386-89.104 10.017-6.261 10.036-20.864 0-27.137-30.924-19.327-49.386-52.636-49.386-89.103v-89.328h256v89.328c0 36.467-18.462 69.776-49.386 89.104-10.039 6.275-10.016 20.876 0 27.137 30.924 19.327 49.386 52.636 49.386 89.103v89.328h-256zm286.909 137.328h-317.818c-9.424 0-17.091-7.178-17.091-16s7.667-16 17.091-16h317.818c9.424 0 17.091 7.178 17.091 16s-7.667 16-17.091 16z"/><path d="m220.116 250.199c2.396 1.438 3.884 4.065 3.884 6.859v22.942c0 17.645 14.355 32 32 32s32-14.355 32-32v-22.941c0-2.794 1.488-5.422 3.885-6.859l24.212-14.527c32.014-19.21 51.903-54.336 51.903-91.673 0-4.418-3.582-8-8-8h-208c-4.418 0-8 3.582-8 8 0 37.337 19.888 72.463 51.904 91.672zm-59.758-98.199h191.283c-2.572 28.7-18.853 54.998-43.777 69.951l-24.212 14.527c-7.188 4.313-11.652 12.198-11.652 20.58v22.942c0 8.822-7.178 16-16 16s-16-7.178-16-16v-22.941c0-8.382-4.465-16.268-11.652-20.58l-24.212-14.527c-24.925-14.954-41.205-41.252-43.778-69.952z"/><path d="m272 328h-32c-52.935 0-96 43.065-96 96 0 4.418 3.582 8 8 8h208c4.418 0 8-3.582 8-8 0-52.935-43.065-96-96-96zm-111.603 88c4.027-40.369 38.191-72 79.603-72h32c41.412 0 75.575 31.631 79.604 72z"/></g></svg>