<svg id="Layer_1" enable-background="new 0 0 512.035 512.035" height="512" viewBox="0 0 512.035 512.035" width="512" xmlns="http://www.w3.org/2000/svg"><g><path d="m387.08 326.551c-11.923-11.922-30.168-15.083-45.408-7.864l-66.72 31.604c-9.142 4.328-20.092 2.435-27.244-4.72l-81.245-81.245c-7.153-7.152-9.05-18.102-4.72-27.244l31.604-66.72c7.219-15.237 4.059-33.485-7.864-45.408l-68.907-68.907c-15.596-15.596-40.973-15.594-56.568 0l-18.386 18.384c-55.49 55.49-55.501 145.318 0 200.819l195.161 195.161c55.493 55.493 145.318 55.501 200.819 0l18.385-18.385c15.595-15.596 15.595-40.973 0-56.569zm-281.819-259.191 68.906 68.907c7.154 7.153 9.051 18.102 4.72 27.244l-7.306 15.424-105.917-105.917 5.657-5.657c9.358-9.359 24.583-9.358 33.94-.001zm142.836 391.737-195.161-195.161c-47.159-47.158-51.859-126.331 1.413-179.604l109.959 109.959-17.024 35.94c-7.218 15.238-4.058 33.485 7.864 45.408l81.245 81.245c11.922 11.921 30.171 15.082 45.408 7.864l35.941-17.024 109.958 109.958c-53.072 53.092-132.286 48.734-179.603 1.415zm196.576-18.385-5.657 5.656-105.918-105.917 15.423-7.306c9.142-4.328 20.091-2.435 27.244 4.72l68.907 68.905c9.358 9.359 9.358 24.585.001 33.942z"/><path d="m504.035.001h-128c-8.822 0-16 7.178-16 16v32c0 8.822 7.178 16 16 16h20.687l-116.687 116.686c-6.252 6.252-6.255 16.374 0 22.629l28.686 28.686c6.252 6.252 16.374 6.255 22.629 0l116.686-116.687v20.646c0 8.737 7.019 16 16.08 16l32.001-.16c8.777-.045 15.919-7.223 15.919-16v-127.8c-.001-4.418-3.583-8-8.001-8zm-8 135.8-32 .16v-39.96c0-7.102-8.622-10.692-13.657-5.657l-130.343 130.343-28.686-28.686 130.343-130.343c5.021-5.021 1.465-13.657-5.657-13.657h-40v-32h120z"/></g></svg>